<?xml version="1.0" encoding="UTF-8"?>
<svg version="1.1" xmlns="http://www.w3.org/2000/svg" width="1390" height="148">
<path d="M0 0 C14.334375 -0.061875 28.66875 -0.12375 43.4375 -0.1875 C47.92915771 -0.21481201 52.42081543 -0.24212402 57.04858398 -0.27026367 C62.62121582 -0.28381348 62.62121582 -0.28381348 65.2469635 -0.28633118 C67.04373925 -0.29087601 68.84050706 -0.30129492 70.63722229 -0.31672668 C91.34461337 -0.4853682 114.02362049 0.88498782 129.96484375 15.84375 C139.24707426 25.73432966 140.47768703 36.29336808 140.27734375 49.27734375 C139.85921866 59.85944479 134.38495036 68.12741649 126.75 75.1875 C120.6789922 80.11683598 113.56066375 83.19201519 106 85 C110.65984272 90.84493853 115.40852959 96.53022431 120.5 102 C124.76801009 106.58620977 128.75563838 111.33124986 132.68359375 116.21484375 C135.21622046 119.25997502 137.86457692 122.16462791 140.5625 125.0625 C154 139.5139738 154 139.5139738 154 142 C149.01956391 142.07461471 144.03945911 142.12881987 139.05859375 142.16479492 C137.36712978 142.17980505 135.67570422 142.20021963 133.984375 142.22631836 C131.54156976 142.26304686 129.0992827 142.27980411 126.65625 142.29296875 C125.53700134 142.31619453 125.53700134 142.31619453 124.3951416 142.33988953 C118.20827494 142.34183622 112.69076136 141.16005756 107.7421875 137.1875 C102.98580464 131.61516862 98.59139524 125.83731441 94.25 119.9375 C93.65179443 119.12885498 93.05358887 118.32020996 92.43725586 117.48706055 C89.41594162 113.38032168 86.48017455 109.24519931 83.66796875 104.9921875 C78.57889944 96.95464484 78.57889944 96.95464484 70.9296875 91.875 C67.43857641 91.80500279 64.42429192 92.31365763 61 93 C59.47702138 93.16436472 57.95199654 93.31046158 56.42578125 93.44140625 C53.33373717 93.71577382 50.24699958 94.00333702 47.1640625 94.3671875 C46.21200928 94.47716064 46.21200928 94.47716064 45.24072266 94.58935547 C42.1095426 95.16318908 39.06084557 96.1254727 36 97 C35.67 111.85 35.34 126.7 35 142 C23.45 142 11.9 142 0 142 C0 95.14 0 48.28 0 0 Z M35 26 C35 41.18 35 56.36 35 72 C37.31 71.34 39.62 70.68 42 70 C43.54334629 69.74961463 45.09531299 69.54470183 46.65234375 69.40234375 C47.92343994 69.28451538 47.92343994 69.28451538 49.22021484 69.16430664 C50.11691895 69.08946045 51.01362305 69.01461426 51.9375 68.9375 C52.88318848 68.85298584 53.82887695 68.76847168 54.80322266 68.68139648 C63.14980101 67.97685069 71.50378835 67.64326682 79.87866211 67.51733398 C86.61264155 67.33877932 92.52430774 66.71077157 98.0234375 62.421875 C102.57745639 56.78857995 104.48546231 51.26008905 104.24609375 43.98046875 C103.62933975 39.01706754 101.76262385 35.78035929 98.3125 32.25 C89.62539298 25.72930732 78.99559185 25.84380804 68.59375 25.90234375 C67.7368457 25.90335083 66.87994141 25.90435791 65.99707031 25.90539551 C62.83136637 25.91058197 59.66568168 25.92454281 56.5 25.9375 C49.405 25.958125 42.31 25.97875 35 26 Z " fill="#FFFFFF" transform="translate(165,3)"/>
<path d="M0 0 C29.6189417 0 29.6189417 0 39.19897461 9.08544922 C39.76108643 9.65279785 40.32319824 10.22014648 40.90234375 10.8046875 C41.88376343 11.79106201 41.88376343 11.79106201 42.88500977 12.79736328 C43.56233154 13.4829834 44.23965332 14.16860352 44.9375 14.875 C46.02405884 15.96723877 46.02405884 15.96723877 47.13256836 17.08154297 C50.19542424 20.16056951 53.25222311 23.24558323 56.30957031 26.33007812 C58.55844117 28.59715458 60.81040238 30.86112966 63.0625 33.125 C63.73982178 33.81062012 64.41714355 34.49624023 65.11499023 35.20263672 C68.94474843 39.05172998 72.8892871 42.68005559 76.99942017 46.22650146 C80.49034153 49.32117622 83.75767707 52.63532952 87.04296875 55.9453125 C87.77445633 56.67821503 88.50594391 57.41111755 89.25959778 58.16622925 C91.57128366 60.48345622 93.87945358 62.80414855 96.1875 65.125 C97.7465109 66.68903526 99.30575374 68.25283936 100.86523438 69.81640625 C103.72433674 72.68363253 106.58211637 75.55216232 109.43823242 78.42236328 C112.28796246 81.28578791 115.14210308 84.1447226 118 87 C119.98 88.98 121.96 90.96 124 93 C124.33 62.31 124.66 31.62 125 0 C135.56 0 146.12 0 157 0 C157 46.86 157 93.72 157 142 C132 142 132 142 125.68359375 138.08984375 C123.43945312 135.58789062 123.43945312 135.58789062 121.4375 132.9375 C119.97979318 131.23662647 118.5201818 129.53738323 117.05859375 127.83984375 C116.3836084 127.01274902 115.70862305 126.1856543 115.01318359 125.33349609 C112.52840333 122.45336879 109.79788342 120.05697067 106.89086914 117.61547852 C103.92240448 115.07934803 101.22666157 112.29061043 98.5 109.5 C95.1122034 106.06962004 91.74777911 102.67715525 88.0625 99.5625 C83.48648238 95.686001 79.35013799 91.3747532 75.13525391 87.11572266 C71.58558242 83.54318081 67.96851023 80.15403123 64.12109375 76.90234375 C60.52570164 73.67774715 57.18055136 70.19970021 53.78588867 66.76635742 C50.85735374 63.81735217 47.90967378 60.95468076 44.75 58.25 C40.29616888 54.39001303 36.16749992 50.16749992 32 46 C32 77.68 32 109.36 32 142 C21.44 142 10.88 142 0 142 C0 95.14 0 48.28 0 0 Z " fill="#FFFFFF" transform="translate(1059,3)"/>
<path d="M0 0 C43.23 0 86.46 0 131 0 C131.33 9.57 131.66 19.14 132 29 C99.99 29 67.98 29 35 29 C35 38.24 35 47.48 35 57 C62.06 57 89.12 57 117 57 C117 65.25 117 73.5 117 82 C89.94 82 62.88 82 35 82 C35 92.56 35 103.12 35 114 C68.33 114 101.66 114 136 114 C135.67 123.24 135.34 132.48 135 142 C90.45 142 45.9 142 0 142 C0 95.14 0 48.28 0 0 Z " fill="#FFFFFF" transform="translate(1254,3)"/>
<path d="M0 0 C19.99564511 -0.48422502 40.4373489 2.49966316 59.3046875 9.12109375 C58.69426999 13.60237575 58.06393487 18.08062738 57.4296875 22.55859375 C57.25566406 23.83798828 57.08164062 25.11738281 56.90234375 26.43554688 C56.72832031 27.65048828 56.55429687 28.86542969 56.375 30.1171875 C56.21789551 31.24310303 56.06079102 32.36901855 55.89892578 33.52905273 C55.70282715 34.38442627 55.50672852 35.2397998 55.3046875 36.12109375 C52.70537647 37.42074926 51.75752101 36.91042629 48.97265625 36.1953125 C48.09029297 35.97552734 47.20792969 35.75574219 46.29882812 35.52929688 C44.90954102 35.17254883 44.90954102 35.17254883 43.4921875 34.80859375 C30.33186678 31.43932127 17.78478484 29.77413302 4.1796875 29.80859375 C2.25962891 29.78442383 2.25962891 29.78442383 0.30078125 29.75976562 C-9.65926738 29.75466836 -19.79447627 30.40538296 -27.6953125 37.12109375 C-29.84328892 39.82338667 -30.6953125 41.22607665 -30.6953125 44.68359375 C-29.03684507 48.7261081 -25.8956799 50.61246531 -21.95214844 52.28344727 C-13.75272723 54.7359882 -5.5860337 56.3446911 2.84634399 57.70040894 C47.97949089 65.0208316 47.97949089 65.0208316 59.3046875 80.12109375 C65.463718 89.78843276 66.5740124 99.99369582 64.1796875 111.05859375 C60.91197019 122.92477458 53.92307617 131.44167308 43.44921875 137.875 C14.3810373 153.19627398 -21.4372136 150.65999418 -51.98779297 141.36669922 C-56.69202139 139.87544807 -61.19290681 138.14086453 -65.6953125 136.12109375 C-65.87275237 129.79240513 -65.20243338 123.86342859 -64.1953125 117.62109375 C-63.98068359 116.244375 -63.98068359 116.244375 -63.76171875 114.83984375 C-63.411642 112.59935256 -63.0560776 110.35988428 -62.6953125 108.12109375 C-58.46938144 106.81516366 -56.68150431 107.8009088 -52.6953125 109.74609375 C-46.69912209 112.51814048 -40.66953856 114.36373672 -34.2578125 115.93359375 C-33.41798828 116.14000488 -32.57816406 116.34641602 -31.71289062 116.55908203 C-22.75355309 118.68469379 -14.20336017 119.32903293 -5.0078125 119.37109375 C-3.89986328 119.39171875 -2.79191406 119.41234375 -1.65039062 119.43359375 C8.688341 119.48193382 20.27552256 118.3885174 28.3046875 111.12109375 C30.37400631 107.66539964 30.8811669 105.15644953 30.3046875 101.12109375 C25.7433422 94.2790758 16.85055918 92.82199047 9.20996094 91.22460938 C3.89647976 90.17441122 -1.43475779 89.22092141 -6.76660156 88.26928711 C-47.95114443 80.86146323 -47.95114443 80.86146323 -59.15625 66.2109375 C-65.25031873 57.0698344 -66.00299972 47.03315089 -64.23046875 36.30859375 C-62.5938183 30.11062757 -59.62605185 25.14266028 -55.6953125 20.12109375 C-55.23898437 19.51523437 -54.78265625 18.909375 -54.3125 18.28515625 C-43.61868409 5.91168339 -24.43998347 1.76344199 -8.8828125 0.37109375 C-5.92214447 0.22196919 -2.96129426 0.13304366 0 0 Z " fill="#FFFFFF" transform="translate(589.6953125,-0.12109375)"/>
<path d="M0 0 C-0.61160353 4.29368826 -1.24153167 8.58448752 -1.875 12.875 C-2.04902344 14.09832031 -2.22304688 15.32164063 -2.40234375 16.58203125 C-2.66337891 18.33193359 -2.66337891 18.33193359 -2.9296875 20.1171875 C-3.16534424 21.73536377 -3.16534424 21.73536377 -3.40576172 23.38623047 C-4 26 -4 26 -6 28 C-7.93261719 27.79980469 -7.93261719 27.79980469 -10.296875 27.171875 C-11.61365234 26.83736328 -11.61365234 26.83736328 -12.95703125 26.49609375 C-13.87871094 26.24988281 -14.80039062 26.00367188 -15.75 25.75 C-29.04345309 22.24554035 -41.93413402 20.65105759 -55.6875 20.6875 C-56.91533203 20.67138672 -58.14316406 20.65527344 -59.40820312 20.63867188 C-69.22418389 20.63344226 -79.22531415 21.39151703 -87 28 C-89.19616559 30.762918 -90.04354678 32.08551767 -89.875 35.625 C-88.70390585 38.80368411 -87.11254203 40.35648108 -84.18969727 42.04711914 C-75.46952117 45.7395337 -66.22349246 46.92660355 -56.9375 48.4375 C-47.06763529 50.04629458 -37.31032032 51.70354173 -27.69921875 54.51171875 C-27.02503403 54.70801376 -26.3508493 54.90430878 -25.65623474 55.10655212 C-14.89630812 58.40414665 -4.53067714 63.62282413 1.4921875 73.4296875 C6.17916215 82.56531606 7.23607944 92.62074279 4.78125 102.6015625 C0.58565448 115.48204074 -7.31476605 124.01520477 -19.21875 130.2109375 C-33.43032104 137.16192894 -48.32963424 139.3919531 -64.0625 139.3125 C-65.23353271 139.30758545 -66.40456543 139.3026709 -67.61108398 139.29760742 C-81.34803665 139.11474813 -94.36521273 137.15510379 -107.625 133.625 C-108.67216187 133.34813354 -108.67216187 133.34813354 -109.74047852 133.06567383 C-115.72845497 131.34371135 -120.19216422 128.90391789 -126 126 C-124.68 117.09 -123.36 108.18 -122 99 C-117.15904074 97.78976018 -116.09052588 98.59009552 -111.6875 100.6875 C-96.60274415 107.55399473 -80.51411201 110.3615324 -64 110.3125 C-62.37191406 110.33666992 -62.37191406 110.33666992 -60.7109375 110.36132812 C-50.47012087 110.3674384 -38.94069099 109.18734339 -31 102 C-28.93068119 98.54430589 -28.4235206 96.03535578 -29 92 C-33.55866042 85.16200938 -42.44338667 83.70664707 -50.07861328 82.10351562 C-55.37216143 81.0525592 -60.68404625 80.10156515 -65.99584961 79.14819336 C-74.53168459 77.60454602 -82.93330166 75.89069723 -91.265625 73.45703125 C-92.29951607 73.15630455 -92.29951607 73.15630455 -93.35429382 72.84950256 C-103.30529817 69.83090514 -113.92233994 64.57916722 -119.56640625 55.47265625 C-124.41119503 46.07293786 -125.68199533 36.18116141 -123.24609375 25.78125 C-121.47510379 20.7252473 -119.36239704 16.2029963 -116 12 C-115.5153125 11.38769531 -115.030625 10.77539062 -114.53125 10.14453125 C-102.64667769 -3.32986324 -83.6763944 -7.35618771 -66.56640625 -8.7109375 C-44.32108121 -10.0936162 -21.04493992 -7.46071016 0 0 Z " fill="#FFFFFF" transform="translate(799,9)"/>
<path d="M0 0 C1.1852306 3.52984566 0.83595405 6.21675777 0.22265625 9.859375 C-0.05288086 11.53193359 -0.05288086 11.53193359 -0.33398438 13.23828125 C-0.63272461 14.97658203 -0.63272461 14.97658203 -0.9375 16.75 C-1.13279297 17.92433594 -1.32808594 19.09867188 -1.52929688 20.30859375 C-2.01236629 23.20701025 -2.50285869 26.10396967 -3 29 C-3.71019287 28.85377197 -4.42038574 28.70754395 -5.15209961 28.55688477 C-8.41306051 27.88792208 -11.67525518 27.225172 -14.9375 26.5625 C-16.05447266 26.33240234 -17.17144531 26.10230469 -18.32226562 25.86523438 C-39.3871676 21.60283486 -66.17541714 19.27855382 -85.53515625 30.46484375 C-94.02818761 36.4907842 -97.97682769 44.0241558 -99.875 54.0625 C-102.24906432 68.26428714 -101.56242243 83.72438617 -93.60546875 96.18359375 C-86.80179 104.94064012 -76.34936858 108.68749337 -65.71484375 110.53125 C-45.85219201 112.88006974 -26.0711493 111.61307474 -7.2578125 104.76953125 C-5 104 -5 104 -3 104 C-2.32364936 107.20636973 -1.66067552 110.41536689 -1 113.625 C-0.80921875 114.52863281 -0.6184375 115.43226562 -0.421875 116.36328125 C0.52210398 120.98203556 1.25214768 125.25647172 1 130 C-27.51693484 144.25846742 -63.52572472 144.85243947 -93.54541016 135.03930664 C-110.62610296 129.05647375 -123.02172698 118.07629005 -131.75 102.3125 C-140.04545016 84.17499032 -141.62099967 60.2294938 -135.3125 41.23828125 C-134.879375 40.16964844 -134.44625 39.10101563 -134 38 C-133.525625 36.81792969 -133.05125 35.63585938 -132.5625 34.41796875 C-125.12892033 17.92471385 -112.34829606 7.12118831 -95.8125 0.1875 C-65.17575545 -10.66301369 -30.79050175 -9.31755583 0 0 Z " fill="#FFFFFF" transform="translate(138,7)"/>
<path d="M0 0 C11.55 0 23.1 0 35 0 C35 37.29 35 74.58 35 113 C65.03 113 95.06 113 126 113 C126 122.57 126 132.14 126 142 C84.42 142 42.84 142 0 142 C0 95.14 0 48.28 0 0 Z " fill="#FFFFFF" transform="translate(832,3)"/>
<path d="M0 0 C2.27607012 1.82400037 4.51994528 3.68260822 6.75 5.5625 C7.28641113 6.01238281 7.82282227 6.46226563 8.37548828 6.92578125 C19.32498613 16.21829303 32.61670558 29.40386983 34.0234375 44.49609375 C34.46624428 59.77292769 28.23042022 69.3597053 18.75 80.5625 C18.14671875 81.32691406 17.5434375 82.09132813 16.921875 82.87890625 C6.87374093 94.4433128 -10.9494438 99.01212429 -25.5625 100.375 C-40.05748908 101.06945921 -55.85739986 98.5826167 -68.25 90.5625 C-65.44527764 89.74862967 -63.15570371 89.5224032 -60.25 89.6875 C-43.87851276 89.74065418 -27.64156571 80.59376748 -15.25 70.5625 C-14.404375 69.92957031 -13.55875 69.29664062 -12.6875 68.64453125 C-10.12413793 66.45499282 -8.39510458 64.27976624 -6.5 61.5 C-5.90703125 60.64277344 -5.3140625 59.78554687 -4.703125 58.90234375 C-1.80302793 54.2325638 -1.60374923 49.89530597 -2.25 44.5625 C-5.00567442 36.79767909 -9.77715725 31.26472341 -15.625 25.625 C-16.42010986 24.84721191 -17.21521973 24.06942383 -18.03442383 23.26806641 C-38.3539107 3.74562099 -63.12423146 -9.98651981 -91.921875 -9.57421875 C-96.07793604 -9.40348854 -100.13032044 -9.00573166 -104.25 -8.4375 C-104.25 -9.0975 -104.25 -9.7575 -104.25 -10.4375 C-66.2004036 -32.05230785 -33.79740164 -26.34250537 0 0 Z " fill="#FFFFFF" transform="translate(474.25,25.4375)"/>
<path d="M0 0 C0 0.33 0 0.66 0 1 C-1.07314453 0.94779297 -1.07314453 0.94779297 -2.16796875 0.89453125 C-23.09417155 0.32603156 -43.00076596 10.36102729 -58.0625 24.625 C-63.32758556 30.3212216 -66.27952486 36.10675027 -66 44 C-64.8818541 52.26266255 -59.65752039 57.28069702 -54 63 C-53.24589844 63.8146875 -52.49179687 64.629375 -51.71484375 65.46875 C-37.1462825 80.8399198 -18.39908489 92.38080763 2 98 C3.2684375 98.36738281 3.2684375 98.36738281 4.5625 98.7421875 C14.97757611 101.31077046 26.4720939 100.4786385 37 99 C33.72412209 102.7343341 29.96407352 104.84624976 25.5625 107 C24.50603271 107.52219116 24.50603271 107.52219116 23.42822266 108.05493164 C5.35825245 116.75189386 -11.96193849 118.16679023 -31 112 C-47.55088136 106.19903392 -61.6249699 96.11544087 -75 85 C-75.84304688 84.31164062 -76.68609375 83.62328125 -77.5546875 82.9140625 C-88.66837753 73.49242217 -100.6145546 59.71091174 -102.24609375 44.7421875 C-102.90230029 32.05552781 -96.26585604 20.9433965 -88.1484375 11.6640625 C-66.15651861 -12.28390951 -27.84790483 -16.33386726 0 0 Z " fill="#FFFFFF" transform="translate(423,32)"/>
<path d="M0 0 C11.55 0 23.1 0 35 0 C35 46.86 35 93.72 35 142 C23.45 142 11.9 142 0 142 C0 95.14 0 48.28 0 0 Z " fill="#FFFFFF" transform="translate(984,3)"/>
</svg>
